<svg width="69" height="69" viewBox="0 0 69 69" fill="none" xmlns="http://www.w3.org/2000/svg">
<g clip-path="url(#clip0_2030_6463)">
<rect width="69" height="69" rx="34.5" fill="#E4F53E"/>
<path d="M68.6164 29.3457L68.6095 29.3015L68.419 29.3084C68.419 29.3084 68.4149 29.3664 68.4135 29.3719L68.35 29.3747C68.2672 30.4456 68.092 31.4626 67.8298 32.3969C67.1867 34.6973 66.1089 37.0213 64.7965 38.9408C63.3448 41.066 61.6543 42.6406 59.9072 43.4948C58.817 44.0289 57.7364 44.4208 56.6959 44.6596C55.8886 44.8417 55.0924 44.9328 54.332 44.9328C51.6962 44.9328 49.2812 43.8233 47.3464 41.7257C44.356 38.4813 42.6241 32.9047 43.0367 27.847C43.1802 26.0779 43.4631 24.4315 43.7363 22.8404C44.3173 19.4621 44.8183 16.5448 43.8812 13.495C43.3789 11.8611 42.3177 10.5943 40.8908 9.92634C39.9193 9.47094 38.905 9.24048 37.8741 9.24048C34.5607 9.24048 31.8269 11.5741 30.4939 13.5723C28.4584 16.6235 27.4441 20.4654 27.7132 24.1114C27.9643 27.5241 29.147 29.7735 30.9217 32.8192C31.8118 34.3454 32.7391 35.6937 33.5588 36.8846C34.9444 38.8994 36.1408 40.6396 36.7315 42.5482C37.5498 45.1936 36.9812 46.466 36.6983 46.891C36.3492 47.4154 35.7889 47.7176 35.0313 47.7894C34.9347 47.7991 34.8395 47.8032 34.747 47.8032C32.4341 47.8032 32.39 44.6458 32.3638 42.7579V42.7151C32.3624 42.5909 32.3596 42.4723 32.3582 42.3591C32.2796 38.6621 30.8596 36.4527 29.06 33.6541C27.9312 31.8987 26.6519 29.9101 25.5286 27.2012C23.7319 22.8735 23.2806 18.699 24.1886 14.795C24.2204 14.6556 24.2549 14.5162 24.2908 14.3755C25.3934 10.0298 28.1189 4.4643 34.8367 2.63028C36.1091 2.28252 37.4159 2.10588 38.72 2.10588C42.6696 2.10588 46.1099 3.73152 48.1579 6.56466C49.8152 8.85684 50.6695 11.4554 50.7716 14.5079C50.7964 15.2338 50.7771 15.9942 50.715 16.7684C50.5701 18.5141 50.2003 20.4281 49.5862 22.6182C48.3442 27.0452 48.0433 30.7961 48.6933 33.7645C49.1915 36.0415 50.2803 37.7761 51.6796 38.5227C52.814 39.1271 54.0229 39.4335 55.2718 39.4335C58.4623 39.4335 61.3686 37.398 62.8342 35.3818C65.1388 32.2106 66.3532 26.6188 66.1544 23.2558C66.0813 22.022 65.9764 20.9774 65.8315 20.0528L65.8274 20.039L65.8246 20.0321C63.0977 14.1353 58.7728 9.13698 53.3177 5.57796C47.7218 1.93062 41.2137 0 34.5 0C25.2844 0 16.6207 3.588 10.1044 10.1044C3.58938 16.6207 0 25.2844 0 34.5C0 37.1786 0.30912 39.8503 0.92046 42.4433L0.9315 42.4888L1.12332 42.4612C1.12332 42.4612 1.12056 42.4046 1.11918 42.4005L1.18266 42.3908C1.06398 40.3374 1.25028 38.3599 1.72224 36.6721C2.36532 34.373 3.4431 32.0477 4.75548 30.1282C6.20724 28.0043 7.89774 26.4284 9.64482 25.5742C10.7267 25.0442 11.8018 24.6537 12.8381 24.4136C13.6523 24.2287 14.4555 24.1362 15.2228 24.1362C17.8586 24.1362 20.275 25.2443 22.2083 27.3419C25.1988 30.5849 26.9307 36.1629 26.5181 41.222C26.3746 42.9925 26.0917 44.6375 25.817 46.2286C25.2361 49.6069 24.7351 52.5242 25.6721 55.574C26.1731 57.2079 27.2357 58.4747 28.6626 59.1427C29.6341 59.5981 30.6484 59.8285 31.6793 59.8285C34.9927 59.8285 37.7264 57.4949 39.0595 55.4953C41.095 52.4441 42.1093 48.6022 41.8402 44.9563C41.5891 41.5449 40.4064 39.2941 38.6317 36.2485C37.7444 34.7263 36.8156 33.3753 35.9959 32.183C34.6104 30.1682 33.4139 28.428 32.8233 26.5181C32.005 23.8726 32.5735 22.6003 32.855 22.1766C33.2042 21.6522 33.7645 21.35 34.5221 21.2782C34.6187 21.2686 34.7153 21.2644 34.8064 21.2644C37.1192 21.2644 37.1634 24.4191 37.1896 26.3028L37.191 26.3566C37.1924 26.4794 37.1951 26.5954 37.1965 26.7071C37.2752 30.4042 38.6952 32.6135 40.4947 35.4122C41.6236 37.1675 42.9028 39.1575 44.0261 41.8651C45.7663 46.0547 46.2438 50.105 45.4475 53.9028C45.4255 54.0077 45.402 54.1126 45.3785 54.2174C44.3242 58.7521 41.618 64.5536 34.7167 66.4387C33.4443 66.7865 32.1374 66.9617 30.8333 66.9631C26.8838 66.9631 23.4434 65.3375 21.3955 62.5043C19.7381 60.2122 18.8839 57.6136 18.7818 54.5611C18.7666 54.1181 18.768 53.6599 18.7846 53.2018C18.8646 51.2146 19.2524 49.0066 19.9686 46.4508C21.2106 42.0238 21.5114 38.2729 20.8615 35.3045C20.3633 33.0262 19.2745 31.2929 17.8751 30.5463C16.7408 29.9419 15.5333 29.6355 14.283 29.6355C11.0938 29.6355 8.18616 31.671 6.7206 33.6872C4.416 36.8584 3.2016 42.4502 3.40032 45.8132C3.52314 47.9026 3.73566 49.4385 4.0917 50.8006L4.09584 50.8116L4.0986 50.8171C10.1264 62.031 21.7778 69 34.5 69C43.7156 69 52.3793 65.412 58.8956 58.8956C65.412 52.3793 69 43.7156 69 34.5C69 32.7778 68.8717 31.0431 68.6164 29.3457Z" fill="black"/>
</g>
<defs>
<clipPath id="clip0_2030_6463">
<rect width="69" height="69" rx="34.5" fill="white"/>
</clipPath>
</defs>
</svg>
